PathFileType	4	(X/Y/Z)	./resultDataOpenSim/trcMotMarkerGrf/sub10/qtm-14-07.trc
DataRate	CameraRate	NumFrames	NumMarkers	Units	OrigDataRate	OrigDataStartFrame	OrigNumFrames
250.000000	250.000000	9	24	m	250.000000	64	511
Frame#	Time	L.Toe.Tip			R.Toe.Tip			L.Ankle.Lat			R.Ankle.Lat			L.Ankle.Med			R.Ankle.Med			L.Heel			R.Heel			L.Knee.Lat			R.Knee.Lat			L.Knee.Med			R.Knee.Med			L.Thigh.Upper			R.Thigh.Upper			L.ASIS			R.ASIS			V.Sacral			L.Acromium			R.Acromium			C7			L.Elbow			R.Elbow			L.Wrist.Lat			R.Wrist.Lat
		X1	Y1	Z1	X2	Y2	Z2	X3	Y3	Z3	X4	Y4	Z4	X5	Y5	Z5	X6	Y6	Z6	X7	Y7	Z7	X8	Y8	Z8	X9	Y9	Z9	X10	Y10	Z10	X11	Y11	Z11	X12	Y12	Z12	X13	Y13	Z13	X14	Y14	Z14	X15	Y15	Z15	X16	Y16	Z16	X17	Y17	Z17	X18	Y18	Z18	X19	Y19	Z19	X20	Y20	Z20	X21	Y21	Z21	X22	Y22	Z22	X23	Y23	Z23	X24	Y24	Z24

64	0.252	-1.4247958	0.077605284	-0.18384822	-0.7610405	0.039205451	0.01183151	-1.4053697	0.21414296	-0.21935308	-0.90204775	0.051907398	0.050299125	-1.3716312	0.20231553	-0.14175633	-0.88616342	0.080038397	-0.03368538	-1.4371176	0.26648811	-0.16760237	-0.95379337	0.028407516	0.0014352543	-1.0894131	0.41231897	-0.24361237	-0.88668119	0.45434117	0.080674526	-1.0645398	0.36796786	-0.13267324	-0.89273238	0.45955315	-0.047563411	-1.0444101	0.78400625	-0.24700782	-0.98229381	0.86382276	0.13173415	-0.97503011	0.89839133	-0.19431022	-0.92964692	0.94174861	0.038572393	-1.1511336	0.93141615	-0.044572482	-1.0071647	1.388482	-0.22284107	-1.0391393	1.3807808	0.10314295	-1.1103858	1.4161699	-0.067347872	-1.0842332	1.045618	-0.27677844	-1.1634184	1.0636712	0.13551835	-0.88846993	0.89174026	-0.28051414	-1.1121512	0.83902921	0.21148874
65	0.256	-1.413094	0.079369021	-0.18371162	-0.76098772	0.039178828	0.011791309	-1.394095	0.21613602	-0.21914291	-0.90209848	0.051914555	0.050285682	-1.3600277	0.20446524	-0.1416053	-0.88600216	0.080019028	-0.033763944	-1.426652	0.26858445	-0.16861832	-0.95384322	0.028392799	0.0014360244	-1.0778145	0.41291843	-0.24335035	-0.8844977	0.45431006	0.081020735	-1.0531846	0.36916803	-0.13214294	-0.89057305	0.4596531	-0.047267461	-1.0382362	0.78486994	-0.24640751	-0.9774052	0.86421644	0.13212964	-0.96959779	0.89976653	-0.19426015	-0.92423793	0.94220136	0.039238569	-1.1459323	0.93212129	-0.044187927	-1.002069	1.3895232	-0.22233837	-1.0335925	1.3816751	0.1037362	-1.1052169	1.4172706	-0.06659889	-1.0799992	1.0469386	-0.27653969	-1.1565377	1.0637691	0.13705808	-0.88598102	0.89092649	-0.28097912	-1.1023114	0.83961244	0.21289072
66	0.26	-1.4007683	0.080881756	-0.18354476	-0.76094688	0.03915474	0.011763965	-1.3826914	0.2179288	-0.21892129	-0.90213358	0.05192391	0.050267669	-1.3487116	0.2065359	-0.14136616	-0.88586183	0.080005502	-0.033837683	-1.4163729	0.27037106	-0.16954617	-0.95387903	0.028384559	0.0014181491	-1.0661504	0.41370444	-0.24306052	-0.88240352	0.45425591	0.081368844	-1.0417309	0.37041475	-0.13162401	-0.88844285	0.4597458	-0.046957123	-1.0321716	0.78593032	-0.24576708	-0.97252992	0.86459857	0.13249413	-0.96423854	0.9011497	-0.19431963	-0.91873899	0.9425931	0.039850839	-1.1408025	0.93286755	-0.043924671	-0.99709432	1.3905861	-0.22185051	-1.0280935	1.3826201	0.10430136	-1.1000782	1.4183728	-0.065877481	-1.0758648	1.0482637	-0.27640475	-1.1496233	1.0638756	0.13866171	-0.8835579	0.89012397	-0.28143652	-1.092388	0.84024394	0.21423706
67	0.264	-1.3877287	0.082237551	-0.18343757	-0.76091886	0.039136223	0.011749272	-1.3711604	0.21953479	-0.21867186	-0.90214284	0.051933217	0.050245087	-1.3374467	0.20851706	-0.14105881	-0.88574113	0.079998368	-0.033902876	-1.4061425	0.27178031	-0.17001766	-0.95390086	0.02838154	0.0013808897	-1.0544385	0.4146555	-0.24273887	-0.88043964	0.45418206	0.08172759	-1.0302292	0.37170711	-0.13111205	-0.88635703	0.45983523	-0.046650269	-1.0262723	0.78716282	-0.24516601	-0.96760851	0.86498273	0.13285166	-0.9589961	0.90251753	-0.19446958	-0.91328477	0.94296806	0.040334966	-1.1357277	0.93365187	-0.043770725	-0.9922096	1.3916703	-0.22136796	-1.0226531	1.383602	0.10484255	-1.0949788	1.4194691	-0.065186633	-1.071751	1.0495998	-0.27629908	-1.1426412	1.0639826	0.14035646	-0.88120181	0.88933499	-0.28188494	-1.0824399	0.84092325	0.2155298
68	0.268	-1.3740062	0.08347045	-0.18340183	-0.76090438	0.03912726	0.011748042	-1.3595048	0.22096135	-0.21839637	-0.9021318	0.051943154	0.05021424	-1.3261642	0.21036579	-0.14069264	-0.88564094	0.079997768	-0.033957579	-1.3958457	0.27281685	-0.17005458	-0.95391295	0.028381176	0.0013304116	-1.0426872	0.41574015	-0.24238145	-0.87861174	0.45410313	0.08209709	-1.0187266	0.37304595	-0.13060193	-0.88433379	0.4599229	-0.046345193	-1.0205809	0.78850582	-0.24465801	-0.96262729	0.86538718	0.13321639	-0.95390542	0.90385895	-0.19468978	-0.90819579	0.94344489	0.040708427	-1.1307026	0.93447611	-0.043715141	-0.98738617	1.3927802	-0.22088412	-1.0173161	1.3846057	0.10537707	-1.0899246	1.4205547	-0.064524186	-1.0675605	1.0509601	-0.2761311	-1.1355984	1.0640821	0.14210649	-0.8789086	0.88856192	-0.28232391	-1.0724306	0.84165151	0.21681656
69	0.272	-1.3597213	0.084574802	-0.18346207	-0.76090419	0.039129193	0.011760585	-1.3477411	0.22220658	-0.21810931	-0.90211494	0.051956417	0.050173922	-1.3149137	0.21202763	-0.14027359	-0.88556682	0.080003707	-0.034002806	-1.3854521	0.27352724	-0.16988992	-0.95392032	0.028384577	0.0012673817	-1.0308951	0.41694283	-0.2419905	-0.87691687	0.45402638	0.082464308	-1.0072371	0.37444087	-0.13008165	-0.88238605	0.46000786	-0.046032461	-1.0150743	0.78992142	-0.244233	-0.95766398	0.8658178	0.1335857	-0.94893418	0.90518328	-0.19495622	-0.90346376	0.94406995	0.041057011	-1.1257302	0.93533246	-0.043745597	-0.98260751	1.3939165	-0.22040337	-1.0120756	1.385633	0.10591094	-1.0849154	1.4216272	-0.063888255	-1.0632562	1.0523536	-0.27585137	-1.1285058	1.0641809	0.14388252	-0.87666669	0.88781625	-0.28275428	-1.0621979	0.84243114	0.21814686
70	0.276	-1.3450012	0.085535204	-0.183685	-0.76092131	0.039140905	0.011786161	-1.3358965	0.22326221	-0.21781111	-0.90210587	0.05197527	0.050127515	-1.3035564	0.21348326	-0.13984749	-0.88552618	0.080015866	-0.034039527	-1.3749845	0.27395003	-0.16969378	-0.95392765	0.028394953	0.0011887996	-1.0190644	0.41825429	-0.24156639	-0.87536241	0.45394627	0.082819295	-0.99574315	0.37590717	-0.12952843	-0.88051671	0.46008249	-0.045711253	-1.0096905	0.79140404	-0.24385472	-0.95279476	0.8662753	0.13396824	-0.94395886	0.90651407	-0.19523221	-0.89869078	0.9447669	0.041454958	-1.1208068	0.93619569	-0.043828792	-0.97786471	1.395075	-0.21993721	-1.0068758	1.3866887	0.10644186	-1.079946	1.4226885	-0.063277084	-1.0588347	1.0537835	-0.27541834	-1.1213759	1.0642963	0.14567483	-0.87447983	0.88711134	-0.28317727	-1.0516655	0.84326751	0.21952174
71	0.28	-1.3300067	0.086322882	-0.18402239	-0.76096186	0.039160445	0.011824141	-1.3239793	0.22411266	-0.21749653	-0.9021134	0.052000071	0.050079201	-1.2917644	0.21475238	-0.13948303	-0.88552531	0.080033615	-0.03406649	-1.3644579	0.27409859	-0.16951841	-0.95393936	0.028409724	0.0011088003	-1.0072222	0.41964769	-0.24110905	-0.87395224	0.45385755	0.083162132	-0.98420698	0.37745815	-0.12891429	-0.87873365	0.46013418	-0.045388913	-1.004392	0.79294434	-0.24351485	-0.94797725	0.8667747	0.13440987	-0.93880418	0.90787488	-0.19546979	-0.89364093	0.94545715	0.041940834	-1.1159241	0.9370369	-0.043904244	-0.9731559	1.3962521	-0.21948685	-1.0016942	1.3877678	0.10697565	-1.0750071	1.4237447	-0.062685323	-1.0542836	1.0552509	-0.27477264	-1.1142386	1.0644434	0.14745866	-0.87236437	0.88645285	-0.28359627	-1.0410228	0.84416288	0.22090129
72	0.284	-1.3149692	0.086898481	-0.18423363	-0.76103224	0.039186441	0.011874897	-1.311964	0.22473982	-0.21716322	-0.90214165	0.05202759	0.050032652	-1.2795326	0.21584469	-0.13916817	-0.88557062	0.080057432	-0.034080987	-1.3538546	0.27395832	-0.1693423	-0.95395943	0.028411517	0.0010855233	-0.99543719	0.4210794	-0.24062025	-0.87267805	0.4537686	0.083498234	-0.97262604	0.37909414	-0.12822526	-0.87707462	0.4601531	-0.045068992	-0.99916893	0.7945133	-0.24322207	-0.94312817	0.86732817	0.13494452	-0.93334862	0.90928016	-0.19562839	-0.88855503	0.94614784	0.04252091	-1.1110873	0.93783709	-0.043918442	-0.96848522	1.3974457	-0.21903738	-0.99654748	1.3888663	0.10751542	-1.0700874	1.4248016	-0.06210834	-1.049645	1.056744	-0.2739517	-1.1071638	1.0646352	0.1491684	-0.87033	0.88583753	-0.2840191	-1.030545	0.84510742	0.22224231
